#!OML:ASF F:\VICON\USERDATA\INSTALL\rory3\rory3.ASF
:FULLY-SPECIFIED
:DEGREES
109
root 0.491136 17.9537 -5.693 -2.35846 -2.46855 1.44892
lowerback 10.3915 -1.13333 -3.61357
upperback 0.0638572 -1.85671 1.49811
thorax -5.60299 -0.795049 3.88925
lowerneck -17.8082 -2.48778 -1.60371
upperneck 20.4806 -3.00457 -0.0554216
head 9.4287 -1.53608 -0.151611
rclavicle -2.73329e-016 7.15625e-015
rhumerus -34.1201 -19.9356 -76.6419
rradius 25.557
rwrist 5.19782
rhand -20.0025 21.8849
rfingers 7.12502
rthumb 6.33742 -8.00032
lclavicle -2.73329e-016 7.15625e-015
lhumerus -22.4497 -3.39339 80.2417
lradius 26.7293
lwrist 7.86531
lhand -29.3105 27.1829
lfingers 7.12502
lthumb -2.6516 57.1462
rfemur -30.8672 2.09195 19.685
rtibia 31.9886
rfoot -9.96246 -9.79551
rtoes -6.14876
lfemur 6.54199 -0.349298 -26.9837
ltibia 18.2066
lfoot -17.4376 -1.82051
ltoes 0.644593
110
root 0.47691 17.9473 -5.52556 -2.11281 -2.06699 1.63101
lowerback 10.2669 -1.24496 -3.8162
upperback 0.0354023 -2.0288 1.44231
thorax -5.54231 -0.876233 3.96588
lowerneck -18.1033 -2.48924 -1.53826
upperneck 20.5706 -3.02338 -0.0409452
head 9.51355 -1.53679 -0.164632
rclavicle -4.74598e-015 3.97569e-015
rhumerus -34.2641 -19.9289 -76.6398
rradius 25.6256
rwrist 5.08519
rhand -19.8209 21.8519
rfingers 7.12502
rthumb 6.51272 -8.02794
lclavicle -4.74598e-015 3.97569e-015
lhumerus -21.8343 -3.66785 80.1804
lradius 26.7045
lwrist 7.97102
lhand -28.8672 25.3482
lfingers 7.12502
lthumb -2.22347 55.3164
rfemur -30.5843 3.2598 18.9117
rtibia 28.8317
rfoot -10.5756 -10.56
rtoes -4.23168
lfemur 7.11612 -0.669797 -27.2595
ltibia 17.4746
lfoot -17.0241 -1.56159
ltoes 1.01391
111
root 0.460555 17.9379 -5.36143 -1.82666 -1.79088 1.55094
lowerback 10.2698 -1.3479 -3.76594
upperback -0.0637336 -2.15943 1.47052
thorax -5.63689 -0.937245 3.9885
lowerneck -18.3407 -2.46208 -1.4707
upperneck 20.6312 -2.99678 -0.0581975
head 9.57674 -1.52011 -0.181845
rclavicle 1.13804e-014 -2.38542e-015
rhumerus -34.4192 -20.2141 -76.4671
rradius 25.5821
rwrist 5.38705
rhand -19.4207 22.0227
rfingers 7.12502
rthumb 6.89903 -7.84492
lclavicle 1.13804e-014 -2.38542e-015
lhumerus -21.6731 -4.18331 80.1837
lradius 27.1425
lwrist 8.53457
lhand -28.6029 24.993
lfingers 7.12502
lthumb -1.96817 54.9637
rfemur -30.3855 4.49851 18.4307
rtibia 25.8902
rfoot -11.3352 -11.3309
rtoes -2.60899
lfemur 7.81432 -0.700787 -27.1485
ltibia 16.7049
lfoot -16.777 -1.45905
ltoes 0.959135
112
root 0.442552 17.933 -5.2001 -1.69022 -1.59805 1.53786
lowerback 10.2572 -1.43266 -3.7977
upperback -0.0100299 -2.27421 1.48303
thorax -5.56051 -0.995819 4.03393
lowerneck -18.4877 -2.45134 -1.61671
upperneck 20.6453 -2.98932 0.161234
head 9.615 -1.50198 -0.0826835
rclavicle 7.30534e-015 -5.1684e-015
rhumerus -34.3328 -20.2356 -76.5305
rradius 25.5733
rwrist 5.37744
rhand -18.9643 22.4381
rfingers 7.12502
rthumb 7.33961 -7.4146
lclavicle 7.30534e-015 -5.1684e-015
lhumerus -21.2963 -4.39113 80.1351
lradius 27.5077
lwrist 8.68112
lhand -28.0226 26.6035
lfingers 7.12502
lthumb -1.40773 56.5786
rfemur -30.056 5.901 17.7857
rtibia 23.0999
rfoot -12.0067 -11.9411
rtoes -1.79088
lfemur 8.75636 -0.602489 -27.0792
ltibia 16.0452
lfoot -16.6919 -1.43266
ltoes 0.584084
113
root 0.428373 17.9301 -5.03352 -1.64178 -1.35381 1.60057
lowerback 10.0701 -1.5269 -3.85201
upperback 0.150512 -2.39815 1.4694
thorax -5.27252 -1.06677 4.05486
lowerneck -18.5418 -2.48036 -1.7081
upperneck 20.5924 -3.02136 0.245455
head 9.60966 -1.51398 -0.043039
rclavicle -3.58061e-014 -2.78299e-015
rhumerus -34.1923 -20.3513 -76.5614
rradius 25.5314
rwrist 5.34051
rhand -18.4264 22.8147
rfingers 7.12502
rthumb 7.85881 -7.01922
lclavicle -3.58061e-014 -2.78299e-015
lhumerus -20.6031 -4.49671 80.0914
lradius 27.3596
lwrist 8.52878
lhand -28.8192 26.0517
lfingers 7.12502
lthumb -2.17712 56.0203
rfemur -29.598 7.13674 17.08
rtibia 20.4207
rfoot -12.7147 -12.5322
rtoes -2.31521
lfemur 9.58253 -0.689537 -27.1644
ltibia 15.638
lfoot -16.7487 -1.43414
ltoes -0.382135
114
root 0.41204 17.9215 -4.8652 -1.60937 -1.14954 1.54054
lowerback 10.0947 -1.57147 -3.80014
upperback 0.105274 -2.4524 1.47707
thorax -5.33054 -1.0923 4.04342
lowerneck -18.206 -2.5725 -1.76733
upperneck 20.4387 -3.1576 0.32738
head 9.49792 -1.57407 -0.0178478
rclavicle -4.008e-014 -1.15295e-014
rhumerus -34.4792 -20.5366 -76.3866
rradius 25.4166
rwrist 5.25692
rhand -18.8024 22.0297
rfingers 7.12502
rthumb 7.49592 -7.81753
lclavicle -4.008e-014 -1.15295e-014
lhumerus -20.2387 -4.92172 80.1134
lradius 27.2094
lwrist 8.73839
lhand -29.927 25.5519
lfingers 7.12502
lthumb -3.24699 55.5069
rfemur -29.118 8.28154 16.5812
rtibia 17.9651
rfoot -12.0281 -12.9782
rtoes -6.08097
lfemur 10.1944 -0.884211 -27.0984
ltibia 15.374
lfoot -16.849 -1.71796
ltoes -0.869779
115
root 0.391993 17.9084 -4.69273 -1.50899 -0.823098 1.34209
lowerback 10.2226 -1.6758 -3.63858
upperback -0.032548 -2.57549 1.52406
thorax -5.54072 -1.14831 4.02864
lowerneck -18.0784 -2.6165 -1.65355
upperneck 20.4571 -3.23988 0.265336
head 9.47854 -1.61119 -0.0675332
rclavicle 2.50966e-015 -7.95139e-015
rhumerus -34.9415 -20.5012 -76.2669
rradius 25.5751
rwrist 5.11669
rhand -19.684 20.4597
rfingers 7.12502
rthumb 6.64483 -9.41607
lclavicle 2.50966e-015 -7.95139e-015
lhumerus -20.1848 -5.48071 80.1654
lradius 27.4311
lwrist 9.04234
lhand -30.515 24.9048
lfingers 7.12502
lthumb -3.81482 54.8504
rfemur -28.6832 9.06158 16.3345
rtibia 15.8717
rfoot -12.6893 -13.0123
rtoes -7.72085
lfemur 10.6893 -1.02626 -26.7796
ltibia 15.3009
lfoot -17.042 -2.05419
ltoes -1.42965
116
root 0.370012 17.8825 -4.51563 -1.42429 -0.57582 1.44864
lowerback 10.2514 -1.75843 -3.92097
upperback -0.0651525 -2.71651 1.59697
thorax -5.56193 -1.20791 4.28734
lowerneck -18.3914 -2.57084 -1.63789
upperneck 20.7405 -3.14291 0.120679
head 9.63187 -1.58003 -0.113735
rclavicle -1.93318e-014 1.47101e-014
rhumerus -35.0269 -19.8366 -76.4561
rradius 25.9044
rwrist 4.40277
rhand -19.6337 20.4581
rfingers 7.12502
rthumb 6.69343 -9.41614
lclavicle -1.93318e-014 1.47101e-014
lhumerus -20.035 -5.6014 80.2886
lradius 27.6476
lwrist 9.14284
lhand -30.4166 23.9453
lfingers 7.12502
lthumb -3.71978 53.8926
rfemur -28.3287 9.54725 15.9139
rtibia 14.2238
rfoot -13.8583 -12.7386
rtoes -7.04162
lfemur 11.2188 -1.16437 -26.789
ltibia 15.4881
lfoot -17.3127 -2.29635
ltoes -2.37038
117
root 0.351068 17.8558 -4.34541 -1.49924 -0.555476 1.47472
lowerback 10.3606 -1.76585 -4.04185
upperback 0.0400672 -2.74118 1.63757
thorax -5.50232 -1.21991 4.40392
lowerneck -18.4684 -2.56162 -1.60968
upperneck 20.6129 -3.11302 0.0296201
head 9.5987 -1.57425 -0.145853
rclavicle -2.24378e-014 -1.19271e-014
rhumerus -34.9929 -19.6415 -76.5332
rradius 26.0699
rwrist 4.31094
rhand -19.3384 20.3172
rfingers 7.12502
rthumb 6.97846 -9.54781
lclavicle -2.24378e-014 -1.19271e-014
lhumerus -19.8055 -5.47813 80.3347
lradius 27.9043
lwrist 9.10066
lhand -32.0747 21.4873
lfingers 7.12502
lthumb -5.32086 51.4005
rfemur -27.8716 9.30231 16.0752
rtibia 13.209
rfoot -14.2145 -11.8651
rtoes -8.51225
lfemur 11.7428 -1.26861 -26.7537
ltibia 15.8431
lfoot -17.4045 -2.53372
ltoes -2.41213
118
root 0.329291 17.8442 -4.18334 -1.4013 -0.461345 1.38935
lowerback 10.4589 -1.79757 -4.02303
upperback 0.0302138 -2.78108 1.7028
thorax -5.5615 -1.23717 4.47305
lowerneck -18.2531 -2.5978 -1.76342
upperneck 20.3409 -3.13842 0.104999
head 9.46815 -1.59037 -0.0926303
rclavicle 1.48343e-014 4.37326e-015
rhumerus -35.1664 -19.4605 -76.506
rradius 26.3079
rwrist 4.16986
rhand -19.4951 19.5848
rfingers 7.12502
rthumb 6.82724 -10.2851
lclavicle 1.48343e-014 4.37326e-015
lhumerus -19.7766 -5.32436 80.3934
lradius 28.3648
lwrist 9.02435
lhand -33.4342 17.0924
lfingers 7.12502
lthumb -6.63335 46.9685
rfemur -27.8347 8.5338 16.5911
rtibia 13.1567
rfoot -13.4167 -10.7875
rtoes -10.0846
lfemur 11.9486 -1.37514 -26.5118
ltibia 16.1995
lfoot -17.4002 -2.91593
ltoes -2.98745
119
root 0.305454 17.8389 -4.01129 -1.21596 -0.317489 1.22827
lowerback 10.3029 -1.87886 -3.96966
upperback 0.0491536 -2.87153 1.80029
thorax -5.44189 -1.28624 4.54979
lowerneck -18.2031 -2.53898 -1.84767
upperneck 20.1445 -3.05103 0.187986
head 9.39242 -1.54688 -0.0361249
rclavicle 2.80783e-014 -2.3059e-014
rhumerus -35.1738 -19.0724 -76.655
rradius 26.4911
rwrist 3.59673
rhand -19.6981 19.4796
rfingers 7.12502
rthumb 6.63123 -10.3966
lclavicle 2.80783e-014 -2.3059e-014
lhumerus -19.6286 -5.2297 80.4329
lradius 28.7708
lwrist 8.90307
lhand -31.0142 19.4733
lfingers 7.12502
lthumb -4.29689 49.4097
rfemur -28.1326 7.80509 17.1862
rtibia 13.9886
rfoot -12.5927 -9.81562
rtoes -8.78293
lfemur 12.1597 -1.68359 -26.2038
ltibia 16.5356
lfoot -17.3461 -3.26072
ltoes -3.88321
120
root 0.283737 17.8324 -3.83868 -1.36809 -0.517317 1.05655
lowerback 10.3577 -1.82699 -3.88702
upperback 0.282673 -2.78878 1.85792
thorax -5.23591 -1.25754 4.54721
lowerneck -18.5951 -2.48665 -1.71707
upperneck 20.052 -2.98838 0.113775
head 9.42733 -1.51441 -0.0791247
rclavicle 6.17475e-014 -7.15625e-015
rhumerus -34.8974 -19.4682 -76.5792
rradius 26.1627
rwrist 3.82587
rhand -19.8256 20.0326
rfingers 7.12502
rthumb 6.5082 -9.84735
lclavicle 6.17475e-014 -7.15625e-015
lhumerus -19.2104 -5.10611 80.4176
lradius 28.9034
lwrist 8.62593
lhand -29.3048 25.2589
lfingers 7.12502
lthumb -2.64606 55.2223
rfemur -28.2023 6.94023 18.0384
rtibia 15.3601
rfoot -12.2691 -8.37343
rtoes -7.47716
lfemur 12.7274 -1.75155 -25.945
ltibia 16.8672
lfoot -17.157 -3.709
ltoes -4.53411
